<svg width="96" height="96" viewBox="0 0 96 96" fill="none" xmlns="http://www.w3.org/2000/svg">
  <!-- Marca Clerio: C/chevron estilizado, sin fondo, usa currentColor para heredar color -->
  <path fill="currentColor" d="M56.4 15.2c2 0 3.6 1.6 3.6 3.6v17.8c0 2-1.6 3.6-3.6 3.6H41.2c-1 0-2 .4-2.7 1.1l-9.6 9.6c-1.4 1.4-1.4 3.8 0 5.2l9.6 9.6c.7.7 1.7 1.1 2.7 1.1h15.2c2 0 3.6 1.6 3.6 3.6v17.8c0 2-1.6 3.6-3.6 3.6H36.8c-4.8 0-9.4-1.9-12.8-5.3L13.3 67.7c-7.1-7.1-7.1-18.5 0-25.6l10.7-10.7c3.4-3.4 8-5.3 12.8-5.3h19.6Z"/>
</svg>
