<svg width="1200" height="740" viewBox="0 0 1200 740" fill="none" xmlns="http://www.w3.org/2000/svg">
  <rect width="1200" height="740" rx="24" fill="#FFFFFF"/>
  <rect x="24" y="24" width="1152" height="80" rx="16" fill="#F7F7F7"/>
  <rect x="48" y="48" width="160" height="32" rx="8" fill="#EDEDED"/>
  <circle cx="1128" cy="64" r="12" fill="#E0E0E0"/>
  <g>
    <rect x="48" y="136" width="360" height="220" rx="16" fill="#F9F9FB"/>
    <rect x="64" y="156" width="160" height="20" rx="6" fill="#EDEDED"/>
    <rect x="64" y="188" width="312" height="12" rx="6" fill="#F0F0F0"/>
    <rect x="64" y="208" width="312" height="12" rx="6" fill="#F0F0F0"/>
    <rect x="64" y="228" width="200" height="12" rx="6" fill="#F0F0F0"/>
    <rect x="64" y="260" width="96" height="32" rx="8" fill="#6C5CE7"/>
  </g>
  <g>
    <rect x="432" y="136" width="696" height="220" rx="16" fill="#F9F9FB"/>
    <rect x="456" y="156" width="200" height="18" rx="6" fill="#EDEDED"/>
    <rect x="456" y="186" width="648" height="160" rx="12" fill="#FFFFFF"/>
    <path d="M480 326 C560 260, 600 300, 680 270 C760 240, 820 320, 900 300 C980 280, 1020 310, 1088 286" stroke="#6C5CE7" stroke-width="3" fill="none"/>
  </g>
  <g>
    <rect x="48" y="372" width="1080" height="320" rx="16" fill="#F9F9FB"/>
    <rect x="64" y="392" width="200" height="18" rx="6" fill="#EDEDED"/>
    <g>
      <rect x="64" y="424" width="1050" height="40" rx="10" fill="#FFFFFF"/>
      <circle cx="92" cy="444" r="10" fill="#6C5CE7"/>
      <rect x="112" y="434" width="280" height="20" rx="6" fill="#F0F0F0"/>
      <rect x="980" y="434" width="100" height="20" rx="6" fill="#EDEDED"/>
    </g>
    <g>
      <rect x="64" y="474" width="1050" height="40" rx="10" fill="#FFFFFF"/>
      <circle cx="92" cy="494" r="10" fill="#6C5CE7"/>
      <rect x="112" y="484" width="220" height="20" rx="6" fill="#F0F0F0"/>
      <rect x="980" y="484" width="100" height="20" rx="6" fill="#EDEDED"/>
    </g>
    <g>
      <rect x="64" y="524" width="1050" height="40" rx="10" fill="#FFFFFF"/>
      <circle cx="92" cy="544" r="10" fill="#6C5CE7"/>
      <rect x="112" y="534" width="240" height="20" rx="6" fill="#F0F0F0"/>
      <rect x="980" y="534" width="100" height="20" rx="6" fill="#EDEDED"/>
    </g>
    <g>
      <rect x="64" y="574" width="1050" height="40" rx="10" fill="#FFFFFF"/>
      <circle cx="92" cy="594" r="10" fill="#6C5CE7"/>
      <rect x="112" y="584" width="280" height="20" rx="6" fill="#F0F0F0"/>
      <rect x="980" y="584" width="100" height="20" rx="6" fill="#EDEDED"/>
    </g>
  </g>
</svg>
